<svg width="1180" height="400" viewBox="0 0 1180 400" fill="none" xmlns="http://www.w3.org/2000/svg">
<g clip-path="url(#clip0_844_2205)">
<rect width="1180" height="400" fill="url(#paint0_linear_844_2205)"/>
<path d="M0 0H1180V400H0V0Z" fill="url(#paint1_linear_844_2205)"/>
<path d="M303.186 291.226C278.521 301.685 278.623 335.678 285.205 344.365C290.047 379.246 309.578 367.519 319.681 366.653C310.714 331.569 300.473 308.036 337.33 291.709C357.249 282.885 359.398 263.34 352.431 249.995C351.772 248.732 350.161 248.395 348.973 249.18C348.026 249.806 347.622 250.989 347.894 252.091C353.405 274.427 327.199 281.044 303.186 291.226Z" fill="#57F287"/>
<path d="M285.204 344.365C290.045 379.246 309.577 367.519 319.68 366.653C318.096 360.456 316.472 354.619 315.075 349.118C304.04 333.347 294.273 345.55 281.828 334.042C282.084 338.455 283.638 342.299 285.204 344.365Z" fill="#2BC476"/>
<path d="M229.988 301.197C219.45 326.956 233.849 351.53 245.642 360.523C288.876 393.488 319.948 377.862 330.08 365.927C282.104 337.227 246.731 348.351 267.933 264.601C276.183 232.013 260.856 209.4 239.129 202.464C237.034 201.795 234.899 203.177 234.451 205.33C234.094 207.045 234.938 208.781 236.433 209.693C266.76 228.18 245.233 263.928 229.988 301.197Z" fill="#57F287"/>
<path d="M287.943 363.536C260.909 365.734 228.286 334.006 241.707 301.197C257.367 262.916 267.503 223.092 239.568 208.226" stroke="#3FDE80" stroke-width="2" stroke-linecap="round"/>
<path d="M775.102 160.048L780.072 159.117L791.052 168.872L802.266 173.088C805.95 174.473 807.325 178.969 805.047 182.178L803.937 183.741C802.978 185.092 801.105 185.41 799.754 184.451L786.615 175.122L776.433 167.893C773.899 166.094 773.303 162.582 775.102 160.048Z" fill="#F6E4BE"/>
<path d="M684.786 146.906C682.76 146.672 681.531 145.945 680.485 144.251C679.861 143.243 678.196 143.347 677.928 144.501C677.853 144.821 677.57 145.049 677.241 145.053L673.748 145.093C673.252 145.098 672.858 144.675 672.899 144.18C672.956 143.483 673.359 142.857 673.97 142.517C677.435 140.594 677.479 140.82 681.187 141.297L683.162 143.502L684.786 146.906Z" fill="#301306"/>
<path d="M670.741 143.636C670.823 142.632 671.703 141.884 672.707 141.965L679.875 142.548C680.879 142.629 681.627 143.509 681.545 144.514C681.464 145.518 680.583 146.266 679.579 146.184L672.412 145.602C671.407 145.521 670.659 144.64 670.741 143.636Z" fill="#8F473B"/>
<path d="M712.153 147.03L722.199 128.547C721.49 126.801 719.73 125.717 717.852 125.869L717.637 125.886C717.134 125.927 716.641 126.05 716.178 126.25L716.11 126.279C714.834 126.831 713.76 127.763 713.033 128.948L704.578 142.741L692.177 143.81L691.877 150.553L708.657 150.372C709.197 150.366 709.711 150.142 710.084 149.751L710.455 149.361C711.121 148.662 711.691 147.878 712.153 147.03Z" fill="#F3A26A"/>
<path d="M672.83 145.038L672.886 144.35C672.999 142.97 673.784 141.719 675.008 141.071C677.558 139.72 677.933 139.947 681.263 140.375L683.238 142.579L685.459 147.506L682.339 143.755C680.979 142.121 678.33 142.811 677.941 144.901C677.809 145.608 677.197 146.123 676.478 146.131L673.876 146.161C673.265 146.168 672.78 145.648 672.83 145.038Z" fill="#652A3C"/>
<path d="M699.329 146.643C699.435 147.473 699.143 148.809 698.788 150.033C698.323 151.634 696.551 152.38 695.008 151.747L687.442 148.641C686.41 148.218 685.466 147.606 684.658 146.838L684.221 146.422C684.104 146.311 683.995 146.19 683.898 146.061L682.048 143.621C681.559 142.976 680.791 142.602 679.981 142.616L679.103 142.63C678.419 142.642 677.819 142.174 677.664 141.507C677.602 141.24 677.775 140.974 678.045 140.922L680.119 140.524C681.651 140.23 683.239 140.544 684.543 141.401L686.792 142.877C686.978 143 687.201 143.056 687.424 143.038L694.293 142.464C694.945 142.41 695.597 142.566 696.125 142.951C697.256 143.775 699.163 145.343 699.329 146.643Z" fill="#652A3C"/>
<path d="M694.978 151.147C696.887 147.643 696.53 147.565 694.97 145.027" stroke="#301306" stroke-width="2" stroke-linecap="round"/>
<path d="M708.57 145.133C707.653 143.301 707.191 143.509 704.652 143.718" stroke="#301306" stroke-width="2" stroke-linecap="round"/>
<path fill-rule="evenodd" clip-rule="evenodd" d="M689.815 177.79C698.435 178.49 706.619 164.349 708.093 146.204C709.567 128.059 703.773 112.783 695.152 112.082L690.225 111.682C683.114 114.637 678.129 128.22 676.875 143.668C675.557 159.89 677.76 174.119 684.887 177.389L689.815 177.79ZM686.853 174.111C693.306 174.635 699.608 161.88 700.929 145.622C702.25 129.364 698.089 115.76 691.636 115.235C685.182 114.711 678.88 127.466 677.56 143.724C676.239 159.982 680.4 173.586 686.853 174.111Z" fill="#47170F"/>
<path d="M691.736 113.908C692.837 113.998 693.657 114.963 693.567 116.064L692.637 127.515C692.592 128.066 692.11 128.476 691.559 128.431L688.32 128.168L689.331 115.72C689.42 114.619 690.385 113.799 691.486 113.888L691.736 113.908Z" fill="#8F473B"/>
<path d="M688.061 159.141C689.162 159.23 689.982 160.195 689.892 161.296L688.829 174.389C688.784 174.94 688.301 175.35 687.751 175.305L684.512 175.042L685.656 160.952C685.746 159.851 686.711 159.031 687.812 159.12L688.061 159.141Z" fill="#8F473B"/>
<path d="M691.574 115.902C691.663 114.801 692.84 113.935 693.387 114.895C693.54 115.163 693.616 115.466 693.59 115.782L692.625 127.656C692.587 128.129 692.11 128.476 691.559 128.431L690.562 128.35L691.574 115.902Z" fill="#47170F"/>
<path d="M687.899 161.134C687.988 160.033 689.159 159.183 689.698 160.147C689.857 160.433 689.936 160.758 689.908 161.097L688.897 173.549C688.857 174.045 688.378 174.41 687.827 174.365L686.831 174.285L687.899 161.134Z" fill="#47170F"/>
<path fill-rule="evenodd" clip-rule="evenodd" d="M685.256 177.419C693.876 178.119 702.06 163.978 703.534 145.834C705.008 127.689 699.214 112.412 690.593 111.712C681.973 111.012 673.789 125.153 672.315 143.297C670.841 161.442 676.635 176.719 685.256 177.419ZM686.841 174.11C693.294 174.634 699.596 161.879 700.917 145.621C702.238 129.363 698.077 115.759 691.624 115.235C685.171 114.71 678.869 127.465 677.548 143.723C676.227 159.981 680.388 173.586 686.841 174.11Z" fill="#8F473B"/>
<path fill-rule="evenodd" clip-rule="evenodd" d="M700.584 148.885C700.719 147.816 700.831 146.727 700.921 145.621C701.011 144.516 701.075 143.424 701.115 142.347C701.081 143.424 701.02 144.517 700.93 145.622C700.84 146.727 700.724 147.816 700.584 148.885ZM686.166 174.005C685.909 174.017 685.652 174.013 685.393 173.992C678.134 173.402 673.319 159.744 674.64 143.486C675.961 127.228 682.917 114.527 690.176 115.117C690.434 115.137 690.689 115.175 690.941 115.228C684.733 115.621 678.826 128.043 677.552 143.723C676.278 159.403 680.103 172.615 686.166 174.005Z" fill="#47170F"/>
<path d="M698.02 145.386C697.253 154.831 693.592 162.241 689.843 161.936L686.747 161.685C683.963 159.564 683.795 152.268 684.444 144.283C685.126 135.88 686.238 128.663 689.526 127.48L692.621 127.732C696.37 128.036 698.788 135.94 698.02 145.386Z" fill="#47170F"/>
<path d="M700.883 128.806L695.487 132.727C694.602 133.37 694.509 134.521 695.278 135.298C696.048 136.076 697.389 136.185 698.274 135.542L702.052 132.797C702.945 132.147 703.04 130.985 702.263 130.2L700.883 128.806Z" fill="#8F473B"/>
<path d="M698.194 162.249L693.476 157.483C692.707 156.706 692.8 155.555 693.685 154.912C694.57 154.269 695.911 154.378 696.68 155.155L699.991 158.5C700.768 159.285 700.674 160.447 699.78 161.097L698.194 162.249Z" fill="#8F473B"/>
<path d="M695.03 145.143C694.263 154.588 690.601 161.998 686.852 161.694C683.103 161.389 680.686 153.485 681.453 144.04C682.221 134.594 685.882 127.184 689.631 127.489C693.38 127.794 695.797 135.697 695.03 145.143Z" fill="#8F473B"/>
<path d="M695.864 145.677C695.946 144.673 696.826 143.925 697.83 144.006L701.048 144.268L700.752 147.905L697.535 147.643C696.53 147.562 695.782 146.681 695.864 145.677Z" fill="#8F473B"/>
<path d="M675.206 143.999C675.287 142.995 676.168 142.247 677.172 142.328L681.647 142.692L681.352 146.328L676.876 145.965C675.872 145.883 675.124 145.003 675.206 143.999Z" fill="#8F473B"/>
<path d="M678.826 127.864C679.711 127.221 681.052 127.33 681.821 128.108L686.992 133.331L683.788 135.659L678.617 130.436C677.848 129.659 677.941 128.507 678.826 127.864Z" fill="#8F473B"/>
<path d="M676.248 159.593C677.018 160.37 678.359 160.479 679.244 159.836L685.19 155.516L682.403 152.701L676.457 157.021C675.572 157.664 675.479 158.816 676.248 159.593Z" fill="#8F473B"/>
<path d="M670.412 140.37C670.502 139.269 671.467 138.449 672.568 138.538L683.49 139.425C684.591 139.515 685.411 140.48 685.322 141.581L678.693 223.178L663.784 221.966L670.412 140.37Z" fill="#8F473B"/>
<path d="M677.1 140.913C677.189 139.812 678.154 138.992 679.255 139.081L683.496 139.426C684.597 139.515 685.417 140.48 685.327 141.581L678.699 223.178L670.471 222.51L677.1 140.913Z" fill="#47170F"/>
<path d="M685.246 142.578L687.389 142.752C688.669 142.856 689.623 143.979 689.519 145.26C689.415 146.541 688.293 147.495 687.012 147.391L684.869 147.217L685.246 142.578Z" fill="#47170F"/>
<rect x="700.34" y="187.246" width="8.95355" height="35.7119" transform="rotate(4.64434 700.34 187.246)" fill="#47170F"/>
<path d="M856.471 191.141L870.148 139.615" stroke="#47170F" stroke-width="3" stroke-linecap="round"/>
<path d="M375.971 299.867L367.329 247.486L349.974 228.426C347.549 225.763 346.337 222.212 346.629 218.621L347.715 205.259L391.99 222.432L468.631 370.596L440.746 365.581C407.424 359.59 381.482 333.271 375.971 299.867Z" fill="#C56858"/>
<rect x="507.738" y="209.371" width="13.6087" height="76.1244" transform="rotate(4.64434 507.738 209.371)" fill="#70281C"/>
<path d="M507.738 209.371L521.302 210.473L520.008 226.401L506.655 222.703L507.738 209.371Z" fill="black"/>
<path d="M523.006 20.5906C523.095 19.4897 524.06 18.6697 525.161 18.7591L534.804 19.5425C535.905 19.6319 536.725 20.5969 536.636 21.6979L534.58 47.0119L520.949 45.9046L523.006 20.5906Z" fill="#70281C"/>
<rect x="436.558" y="25.4595" width="203.582" height="13.1517" rx="6.57585" transform="rotate(4.64434 436.558 25.4595)" fill="#70281C"/>
<rect x="626.402" y="40.8818" width="13.1123" height="13.1517" rx="6.55616" transform="rotate(4.64434 626.402 40.8818)" fill="#47170F"/>
<rect x="629.662" y="44.7225" width="5.99888" height="6.0229" rx="2.99944" transform="rotate(4.64434 629.662 44.7225)" stroke="#8F473B" stroke-width="2"/>
<path d="M729.727 90.6886C734.881 89.9789 739.489 91.0374 742.63 93.4961C746.211 96.3 748.366 100.741 752.281 103.056C755.79 105.131 758.39 106.862 758.309 111.463C758.254 114.635 750.722 118.426 726.193 110.368C701.664 102.309 705.028 91.5308 709.856 89.7449C714.684 87.9589 721.547 91.8151 729.727 90.6886Z" fill="#CE8A5C"/>
<path d="M754.486 111.437C757.471 108.318 741.096 104.473 730.71 99.7122C720.16 93.9585 708.42 90.8013 708.328 94.9559C708.235 99.1105 712.316 103.115 725.134 108.073C737.952 113.032 751.008 115.072 754.486 111.437Z" fill="#8F473B"/>
<mask id="mask0_844_2205" style="mask-type:alpha" maskUnits="userSpaceOnUse" x="706" y="89" width="53" height="27">
<path d="M729.728 90.6886C734.881 89.9789 739.49 91.0374 742.63 93.4961C746.211 96.3 748.367 100.741 752.282 103.056C755.791 105.131 758.39 106.862 758.31 111.463C758.254 114.635 750.722 118.426 726.194 110.368C701.665 102.309 705.029 91.5308 709.857 89.7449C714.685 87.9589 721.548 91.8151 729.728 90.6886Z" fill="#CE8A5C"/>
</mask>
<g mask="url(#mask0_844_2205)">
<path d="M741.218 96.8931C742.519 98.9575 745.523 101.16 749.086 99.491L745.058 91.8188C743.344 92.8221 740.177 95.2417 741.218 96.8931Z" fill="#EDB997"/>
<path d="M727.006 94.0248C731.465 94.5829 733.072 90.6819 733.318 88.6616L722.372 87.7724C722.059 89.624 722.546 93.4666 727.006 94.0248Z" fill="#EDB997"/>
<path d="M735.462 99.1799C731.625 98.1949 731.948 94.9771 735.054 92.9036C736.855 91.8257 738.398 93.1753 738.725 94.426C739.052 95.6767 739.3 100.165 735.462 99.1799Z" fill="#EDB997"/>
</g>
<mask id="mask1_844_2205" style="mask-type:alpha" maskUnits="userSpaceOnUse" x="708" y="93" width="47" height="21">
<path d="M754.486 111.437C757.471 108.318 741.096 104.473 730.71 99.7123C720.16 93.9586 708.42 90.8014 708.328 94.956C708.235 99.1106 712.316 103.115 725.134 108.073C737.952 113.032 751.008 115.072 754.486 111.437Z" fill="#8F473B"/>
</mask>
<g mask="url(#mask1_844_2205)">
<path d="M729.982 104.183C725.837 102.459 716.271 97.56 711.16 91.7585M729.982 104.183L724.448 93.9398M729.982 104.183L736.366 99.4373M729.982 104.183L746.367 104.412M729.982 104.183C733.529 106.225 743.52 110.228 755.103 109.896M729.982 104.183C732.557 106.636 738.575 112.03 742.04 113.976M729.982 104.183C725.858 104.215 716.19 103.38 710.508 99.785" stroke="#6B2F34" stroke-width="2"/>
</g>
<path d="M711.022 130L714.002 127.041L712.908 137.818C711.571 135.143 711.102 133.474 711.022 130Z" fill="#2431C0"/>
<path d="M707.475 184.19C708.056 174.134 713.617 158.096 713.617 158.096L736.887 158.258L738.729 167.876L739.368 183.066C739.368 183.066 739.522 191.045 739.208 192.452C738.894 193.859 737.585 194.346 737.585 194.346L737.447 196.04C737.405 196.561 736.968 196.962 736.445 196.959L727.267 196.907C726.795 196.904 726.389 196.572 726.293 196.11L726.17 195.516C725.389 195.154 724.899 194.36 724.925 193.499L725.195 184.718L724.476 175.468C724.476 175.468 722.895 184.519 722.641 187.653C722.386 190.787 722.734 191.952 722.247 192.506C721.759 193.061 721.082 193.005 721.082 193.005L720.656 194.174C720.354 195 719.548 195.532 718.669 195.485L709.529 194.991C709.029 194.964 708.626 194.571 708.586 194.072L708.495 192.931C707.968 192.473 707.152 191.5 707.167 190.803C707.189 189.688 707.273 187.692 707.475 184.19Z" fill="#232231"/>
<path d="M712.515 138.722L712.613 137.523L713.317 128.856C714.26 125.45 717.569 123.259 721.073 123.719L740.292 126.246C742.367 126.519 744.29 127.569 745.482 129.29C747.307 131.923 748.073 133.828 748.144 136.233C748.158 136.708 748.01 137.171 747.754 137.572C747.036 138.697 745.914 139.504 744.619 139.827L741.05 140.715L738.759 147.752L737.254 158.923C737.204 159.291 736.948 159.598 736.595 159.713C735.156 160.181 733.652 160.422 732.139 160.425L724.467 160.443C723.391 160.446 722.318 160.332 721.267 160.105L714.011 158.539C713.553 158.44 713.225 158.036 713.222 157.567L713.13 141.398L712.515 138.722Z" fill="#3B49DE"/>
<path d="M721.643 119.013L720.241 119.909C720.01 120.057 719.825 120.266 719.707 120.513L719.616 121.632L717.668 121.806C717.364 121.833 717.098 122.003 717.002 122.293C716.722 123.139 716.379 124.748 716.379 124.748C714.357 133.47 719.046 139.083 720.559 141.232C720.831 141.618 721.343 141.715 721.755 141.486L721.934 141.386C727.481 139.875 741.98 135.116 742.645 126.925C742.737 125.786 741.74 123.203 740.187 123.135L738.191 123.055L736.199 120.338C736.184 120.322 736.168 120.307 736.153 120.292L736.04 120.174C735.891 120.018 735.71 119.898 735.509 119.82L734.295 119.352L721.643 119.013Z" fill="#FF78B9"/>
<path d="M721.907 128.732C722.344 129.069 722.424 129.697 722.086 130.134C721.749 130.571 721.121 130.652 720.684 130.314L721.907 128.732ZM718.613 121.723C719.609 121.638 719.609 121.637 719.609 121.637C719.609 121.637 719.609 121.637 719.609 121.637C719.609 121.637 719.609 121.637 719.609 121.637C719.609 121.638 719.609 121.638 719.609 121.639C719.609 121.641 719.61 121.645 719.61 121.65C719.611 121.66 719.612 121.675 719.614 121.696C719.618 121.738 719.625 121.8 719.634 121.882C719.651 122.044 719.679 122.281 719.719 122.57C719.8 123.152 719.928 123.94 720.12 124.773C720.313 125.612 720.565 126.47 720.883 127.202C721.211 127.954 721.565 128.468 721.907 128.732L720.684 130.314C719.947 129.745 719.427 128.866 719.05 128C718.664 127.114 718.379 126.126 718.171 125.222C717.962 124.315 717.824 123.465 717.738 122.844C717.695 122.533 717.665 122.277 717.645 122.098C717.636 122.008 717.628 121.938 717.624 121.889C717.621 121.864 717.62 121.845 717.618 121.832C717.618 121.825 717.617 121.82 717.617 121.816C717.617 121.814 717.617 121.812 717.616 121.811C717.616 121.811 717.616 121.81 717.616 121.81C717.616 121.809 717.616 121.809 717.616 121.809C717.616 121.809 717.616 121.809 718.613 121.723Z" fill="#FF3BA5"/>
<path d="M735.216 120.467C734.966 117.04 735.81 111.902 736.742 108.003C737.125 106.405 736.606 104.669 735.191 103.835C729.815 100.666 725.62 101.813 724.864 103.465C722.641 108.322 722.095 115.129 722.061 119.741C722.033 123.453 722.349 126.978 724.833 128.501C725.16 128.701 725.58 128.648 725.912 128.457C728.072 127.221 735.446 123.63 735.216 120.467Z" fill="#F3A26A"/>
<path d="M723.414 114.482C723.289 116.027 723.772 117.327 724.492 117.386C725.213 117.444 725.899 116.239 726.025 114.694L723.414 114.482Z" fill="white"/>
<ellipse rx="1.08714" ry="0.782722" transform="matrix(-0.742815 0.669497 0.669497 0.742815 728.613 110.895)" fill="#301306"/>
<path d="M723.619 111.18C723.355 111.273 723.099 110.981 723.047 110.528C722.996 110.075 723.168 109.632 723.432 109.539C723.696 109.446 723.951 109.738 724.003 110.191C724.055 110.644 723.882 111.087 723.619 111.18Z" fill="#301306"/>
<path fill-rule="evenodd" clip-rule="evenodd" d="M713.119 141.38C716.113 142.705 714.996 142.654 718.681 142.752C719.235 142.767 719.671 143.228 719.657 143.781C719.642 144.335 719.181 144.771 718.628 144.756C715.161 144.663 716.036 144.726 713.147 143.567L713.119 141.38Z" fill="#2431C0"/>
<path fill-rule="evenodd" clip-rule="evenodd" d="M739.742 143.542C736.573 144.367 734.694 144.254 731.04 143.757C730.492 143.682 729.986 144.066 729.912 144.614C729.837 145.163 730.221 145.668 730.77 145.743C734.206 146.211 736.322 146.374 739.36 145.697L739.742 143.542Z" fill="#2431C0"/>
<path d="M719.51 195.516L709.132 194.961L711.168 217.899C711.198 218.245 711.047 218.582 710.769 218.79L706.416 222.032L701.605 223.522C700.84 223.759 700.367 224.523 700.497 225.313C700.556 225.677 700.856 225.953 701.223 225.983L716.65 227.236C717.2 227.281 717.683 226.871 717.727 226.32L717.999 222.973L718.193 220.585L718.015 218.171L718.521 211.945L719.885 204.52C720.333 201.047 720.221 199.073 719.51 195.516Z" fill="#652A3C"/>
<path d="M737.13 228.9L727.055 228.081L726.911 226.392L728.161 222.243L727.93 213.849L727.458 208.386L727.197 197.746C727.173 196.75 727.886 195.887 728.869 195.724L733.095 195.023C734.729 194.752 736.361 195.52 737.193 196.952L733.876 222.067L735.816 225.154L737.147 225.839C737.865 226.209 738.29 226.975 738.224 227.78L738.208 227.984C738.163 228.535 737.68 228.944 737.13 228.9Z" fill="#652A3C"/>
<path d="M726.982 227.229L727.047 228.086L737.148 228.907C737.685 228.95 738.157 228.55 738.2 228.012L730.47 227.384L728.902 227.684L726.982 227.229Z" fill="#301306"/>
<path d="M723.042 134.745C722.508 134.884 722.187 135.43 722.327 135.965C722.466 136.499 723.012 136.819 723.547 136.68L723.042 134.745ZM738.185 123.057C738.164 123.562 737.864 124.4 737.144 125.481C736.442 126.533 735.407 127.718 734.073 128.9C731.404 131.263 727.602 133.557 723.042 134.745L723.547 136.68C728.442 135.404 732.519 132.947 735.399 130.397C736.838 129.122 737.995 127.81 738.808 126.591C739.601 125.4 740.139 124.191 740.183 123.141L738.185 123.057Z" fill="#FF3BA5"/>
<path d="M719.578 149.733C717.552 149.499 716.324 148.772 715.277 147.078C714.654 146.07 712.989 146.173 712.72 147.328C712.646 147.648 712.362 147.875 712.034 147.879L708.541 147.919C708.044 147.925 707.65 147.502 707.691 147.007C707.749 146.31 708.151 145.683 708.763 145.344C712.227 143.42 712.271 143.647 715.98 144.124L717.954 146.328L719.578 149.733Z" fill="#301306"/>
<path d="M731.485 115.047C727.877 111.999 726.117 112.56 724.909 112.952C721.444 111.323 720.885 113.469 719.13 114.517C717.376 115.565 716.262 114.946 716.469 116.153C716.607 116.955 718.204 116.955 718.566 116.72C718.949 116.751 720.217 116.854 720.672 116.097C722.126 116.533 724.012 115.302 724.763 114.745C725.469 116.813 727.395 117.261 728.774 117.153C729.748 119.098 732.738 119.219 733.924 118.55C736.157 119.525 739.606 119.012 739.166 117.323C738.725 115.634 735.525 118.458 731.485 115.047Z" fill="#6B2F34"/>
<path d="M705.533 146.463C705.615 145.458 706.495 144.71 707.5 144.792L714.667 145.374C715.671 145.456 716.419 146.336 716.338 147.34C716.256 148.345 715.376 149.093 714.372 149.011L707.204 148.429C706.2 148.347 705.452 147.467 705.533 146.463Z" fill="#8F473B"/>
<path d="M746.286 150.876L747.535 136.625L747.37 136.217C746.759 134.714 745.244 133.781 743.627 133.911C742.717 133.985 741.866 134.391 741.236 135.052L740.947 135.356C739.757 136.605 739.12 138.28 739.179 140.004L739.37 145.568L726.97 146.637L726.669 153.38L743.558 155.123C743.92 155.161 744.279 155.028 744.53 154.765C745.539 153.705 746.158 152.334 746.286 150.876Z" fill="#F3A26A"/>
<path d="M707.622 147.865L707.678 147.177C707.792 145.797 708.577 144.546 709.801 143.897C712.351 142.547 712.726 142.773 716.056 143.201L718.03 145.406L720.252 150.333L717.131 146.582C715.771 144.947 713.123 145.638 712.734 147.728C712.602 148.435 711.989 148.95 711.27 148.958L708.669 148.988C708.057 148.995 707.572 148.474 707.622 147.865Z" fill="#652A3C"/>
<path d="M734.122 149.47C734.227 150.3 733.936 151.635 733.58 152.86C733.115 154.461 731.344 155.207 729.801 154.574L722.235 151.468C721.203 151.045 720.258 150.433 719.45 149.664L719.013 149.249C718.896 149.137 718.788 149.016 718.69 148.887L716.84 146.447C716.351 145.802 715.584 145.429 714.774 145.442L713.895 145.457C713.211 145.468 712.612 145 712.457 144.334C712.395 144.066 712.567 143.8 712.837 143.749L714.911 143.35C716.444 143.056 718.031 143.371 719.336 144.227L721.584 145.704C721.771 145.826 721.993 145.883 722.216 145.864L729.086 145.291C729.737 145.236 730.389 145.393 730.918 145.778C732.049 146.602 733.956 148.169 734.122 149.47Z" fill="#652A3C"/>
<path d="M729.772 153.973C731.68 150.47 731.324 150.392 729.764 147.854" stroke="#301306" stroke-width="2" stroke-linecap="round"/>
<path d="M725.344 174.909C724.994 173.696 723.008 169.638 724.184 168.417" stroke="black" stroke-width="2" stroke-linecap="round"/>
<path d="M743.363 147.959C742.445 146.127 741.983 146.335 739.445 146.545" stroke="#301306" stroke-width="2" stroke-linecap="round"/>
<rect x="682.605" y="185.805" width="8.95355" height="35.7119" transform="rotate(4.64434 682.605 185.805)" fill="#70281C"/>
<rect x="723.164" y="189.1" width="8.95355" height="35.7119" transform="rotate(4.64434 723.164 189.1)" fill="#70281C"/>
<rect x="682.605" y="185.805" width="3.48488" height="35.7119" transform="rotate(4.64434 682.605 185.805)" fill="#C56858"/>
<rect x="723.164" y="189.1" width="3.48488" height="35.7119" transform="rotate(4.64434 723.164 189.1)" fill="#C56858"/>
<rect x="615.074" y="180.319" width="8.95355" height="35.7119" transform="rotate(4.64434 615.074 180.319)" fill="#47170F"/>
<rect x="742.879" y="190.701" width="8.95355" height="35.7119" transform="rotate(4.64434 742.879 190.701)" fill="#47170F"/>
<rect x="648.84" y="183.062" width="8.95355" height="35.7119" transform="rotate(4.64434 648.84 183.062)" fill="#70281C"/>
<rect x="766.715" y="192.638" width="8.95355" height="35.7119" transform="rotate(4.64434 766.715 192.638)" fill="#70281C"/>
<rect width="29.0446" height="8.59014" rx="2" transform="matrix(0.996716 0.0809703 0.0809703 -0.996716 493.281 292.101)" fill="#70281C"/>
<rect width="29.0446" height="8.59014" rx="2" transform="matrix(0.996716 0.0809703 0.0809703 -0.996716 493.281 292.101)" fill="#47170F"/>
<path d="M550.441 282.609L549.438 294.954L580.752 297.497L586.184 230.629L540.75 226.938L540.709 227.444C539.414 243.384 551.286 257.356 567.226 258.651L566.235 270.849L564.451 270.705C557.295 270.123 551.023 275.453 550.441 282.609Z" fill="#C56858"/>
<path d="M558.859 283.293L557.857 295.637L699.886 307.175L705.319 240.307L549.168 227.622L549.127 228.127C547.832 244.067 559.704 258.039 575.644 259.334L574.653 271.533L572.869 271.388C565.713 270.807 559.441 276.137 558.859 283.293Z" fill="#70281C"/>
<path d="M566.183 282.496C566.317 280.845 567.765 279.615 569.416 279.749L677.751 288.55L676.393 305.267L565.068 296.223L566.183 282.496Z" fill="#47170F"/>
<path d="M627.418 237.889L627.733 234.004L549.171 227.622L627.418 237.889Z" fill="#47170F"/>
<path d="M585.167 267.211C585.301 265.559 586.749 264.329 588.4 264.464L691.315 272.824L689.957 289.541L584.052 280.938L585.167 267.211Z" fill="#47170F"/>
<path d="M604.003 251.913C604.137 250.262 605.585 249.032 607.236 249.166L706.159 257.202L704.801 273.92L602.888 265.64L604.003 251.913Z" fill="#47170F"/>
<path d="M595.227 281.846L677.754 288.55" stroke="#8F473B" stroke-width="2" stroke-linecap="round"/>
<path d="M621.218 236.485C621.352 234.833 622.8 233.603 624.451 233.738L723.374 241.774L722.016 258.491L620.103 250.212L621.218 236.485Z" fill="#47170F"/>
<path d="M540.542 213.103C540.676 211.452 542.124 210.222 543.775 210.356L858.286 235.906L857.738 242.656C857.291 248.161 852.466 252.261 846.961 251.814L539.427 226.83L540.542 213.103Z" fill="#70281C"/>
<path d="M636.253 225.905C636.387 224.254 637.835 223.024 639.486 223.158L658.84 224.73L657.888 236.454L635.544 234.638L636.253 225.905Z" fill="#47170F"/>
<path d="M832.096 197.949L832.875 188.365L599.366 169.395C595.052 169.045 591.271 172.258 590.921 176.572C590.571 180.885 593.784 184.666 598.097 185.016L600.842 185.239L601.332 179.202L781.954 193.876L779.062 229.47L829.204 233.544L832.096 197.949Z" fill="#47170F"/>
<path d="M779.601 165.728C777.668 166.609 775.387 165.757 774.506 163.824L771.123 156.403L769.011 151.772L776.782 150.274L781.505 160.634C782.386 162.566 781.533 164.847 779.601 165.728Z" fill="#EE80B7"/>
<path d="M638.043 182.184C634.727 178.485 637.63 172.634 642.582 173.036L653.08 173.889L652.312 183.344L638.043 182.184Z" fill="#C56858"/>
<path d="M861.183 200.312L861.962 190.728L647.965 173.343C642.93 172.934 640.032 178.939 643.485 182.627L828.314 197.642L825.422 233.236L854.984 235.638L857.876 200.043L861.183 200.312Z" fill="#70281C"/>
<path d="M617.84 266.974L700.367 273.679" stroke="#8F473B" stroke-width="2" stroke-linecap="round"/>
<path d="M628.438 250.888L710.965 257.593" stroke="#8F473B" stroke-width="2" stroke-linecap="round"/>
<path d="M671.914 292.477L670.911 304.821L702.225 307.365L707.657 240.497L662.223 236.806L661.456 246.239C660.562 257.249 668.762 266.899 679.771 267.793L688.699 268.518L687.708 280.717L685.924 280.573C678.768 279.991 672.495 285.321 671.914 292.477Z" fill="#C56858"/>
<path d="M442.741 228.017L347.711 205.252L392.767 246.643C393.206 247.046 393.515 247.57 393.654 248.149L410.171 316.67C417.427 346.771 443.597 368.529 474.517 370.168L725.231 383.458C729.604 383.69 733.86 381.999 736.882 378.829L766.139 348.141C770.709 343.348 774.281 337.695 776.648 331.509L788.597 300.283L807.875 301.849C808.629 301.91 809.379 301.684 809.973 301.216L832.107 283.79C832.762 283.274 833.174 282.508 833.241 281.676L835.741 250.902L673.107 237.69L672.341 247.123C671.447 258.133 679.647 267.783 690.656 268.677L698.477 269.312L697.486 281.511L696.809 281.456C689.653 280.875 683.38 286.205 682.799 293.361L681.796 305.705L502.605 291.148L453.726 234.693C450.852 231.374 447.011 229.039 442.741 228.017Z" fill="url(#paint2_linear_844_2205)"/>
<path d="M834.9 261.293L835.744 250.902L673.125 237.691L834.9 261.293Z" fill="black"/>
<path d="M784.79 310.319L788.599 300.292L702.807 293.322L784.79 310.319Z" fill="#47170F"/>
<path d="M568.261 342.936L641.23 348.864" stroke="#70281C" stroke-width="2" stroke-linecap="round"/>
<path d="M551.949 331.65L624.918 337.578" stroke="#70281C" stroke-width="2" stroke-linecap="round"/>
<path d="M611.81 336.513L611.006 346.408" stroke="#70281C" stroke-width="2"/>
<rect x="518.472" y="311.44" width="19.3625" height="22.3972" rx="5.84024" transform="rotate(4.64434 518.472 311.44)" fill="#C56858"/>
<path d="M535.264 211.671C535.353 210.57 536.318 209.75 537.419 209.84L541.241 210.15C542.342 210.24 543.162 211.205 543.073 212.306L542.038 225.036C541.949 226.137 540.984 226.957 539.883 226.867L536.061 226.557C534.96 226.467 534.14 225.502 534.229 224.401L535.264 211.671Z" fill="#C56858"/>
<path d="M453.816 322.81L526.785 328.737" stroke="#70281C" stroke-width="2" stroke-linecap="round"/>
<path d="M385.679 308.868L416.808 311.397" stroke="#8F473B" stroke-width="2" stroke-linecap="round"/>
<path d="M636.521 334.756L699.591 339.879" stroke="#70281C" stroke-width="2" stroke-linecap="round"/>
<path d="M630.023 324.267L685.6 328.782" stroke="#70281C" stroke-width="2" stroke-linecap="round"/>
<path d="M659.87 326.692L659.066 336.587" stroke="#70281C" stroke-width="2" stroke-linecap="round"/>
<path d="M770.168 276.579L833.238 281.702" stroke="#47170F" stroke-width="2"/>
<path d="M720.867 304.544L783.937 309.668" stroke="#47170F" stroke-width="2" stroke-linecap="round"/>
<path d="M712.762 313.847L768.338 318.362" stroke="#47170F" stroke-width="2" stroke-linecap="round"/>
<path d="M742.608 316.271L743.412 306.376" stroke="#47170F" stroke-width="2" stroke-linecap="round"/>
<rect x="575.25" y="316.052" width="19.3642" height="22.3972" rx="5.84024" transform="rotate(4.64434 575.25 316.052)" fill="#C56858"/>
<path d="M441.192 35.9208C443.146 33.8109 445.995 32.8233 448.862 33.0562L617.233 46.7342C619.197 46.8937 619.937 49.7642 618.486 51.0963C591.597 75.7773 593.695 159.057 608.56 223.46C608.866 224.785 607.795 226.017 606.44 225.907L445.608 212.841C435.573 212.026 426.078 207.068 421.565 198.069C397.615 150.307 406.503 73.3615 441.192 35.9208Z" fill="url(#paint3_linear_844_2205)"/>
<rect x="628.578" y="320.385" width="20.0548" height="22.3972" rx="5.84024" transform="rotate(4.64434 628.578 320.385)" fill="#C56858"/>
<rect x="732.457" y="256.757" width="24.8046" height="30.7743" rx="5.84024" transform="rotate(4.64434 732.457 256.757)" fill="#C56858"/>
<rect x="772.777" y="260.032" width="24.8046" height="30.7743" rx="5.84024" transform="rotate(4.64434 772.777 260.032)" fill="#C56858"/>
<rect x="516.5" y="311.28" width="19.3625" height="22.3972" rx="5.84024" transform="rotate(4.64434 516.5 311.28)" fill="black"/>
<rect x="515.254" y="311.178" width="27.6609" height="5.54001" rx="1" transform="rotate(4.64434 515.254 311.178)" fill="#70281C"/>
<rect x="573.277" y="315.892" width="19.3642" height="22.3972" rx="5.84024" transform="rotate(4.64434 573.277 315.892)" fill="black"/>
<rect x="626.527" y="320.218" width="20.0548" height="22.3972" rx="5.84024" transform="rotate(4.64434 626.527 320.218)" fill="black"/>
<rect x="729.922" y="256.551" width="24.8046" height="30.7743" rx="5.84024" transform="rotate(4.64434 729.922 256.551)" fill="black"/>
<rect x="770.242" y="259.826" width="24.8046" height="30.7743" rx="5.84024" transform="rotate(4.64434 770.242 259.826)" fill="black"/>
<path d="M698.243 270.317L701.221 270.559C704.524 270.827 707.419 268.367 707.687 265.064L708.082 260.199C708.351 256.896 705.891 254.001 702.588 253.733L698.508 253.401C695.205 253.133 692.31 255.593 692.042 258.896L691.923 260.358" stroke="#C56858" stroke-width="2" stroke-linecap="round"/>
<path d="M575.114 260.314L578.092 260.556C581.395 260.824 584.29 258.364 584.558 255.062L584.953 250.196C585.222 246.894 582.762 243.999 579.459 243.73L575.379 243.399C572.076 243.131 569.181 245.591 568.913 248.893L568.794 250.355" stroke="#C56858" stroke-width="2" stroke-linecap="round"/>
<path d="M437.504 311.524L510.473 317.452" stroke="#70281C" stroke-width="2" stroke-linecap="round"/>
<path d="M382.312 298.634L409.555 300.847" stroke="#8F473B" stroke-width="2" stroke-linecap="round"/>
<path d="M497.363 316.387L496.559 326.282" stroke="#70281C" stroke-width="2" stroke-linecap="round"/>
<path d="M400.219 300.147L402.583 310.241" stroke="#8F473B" stroke-width="2"/>
<rect x="766.715" y="192.638" width="3.48488" height="35.7119" transform="rotate(4.64434 766.715 192.638)" fill="#C56858"/>
<rect x="648.84" y="183.062" width="3.48488" height="35.7119" transform="rotate(4.64434 648.84 183.062)" fill="#C56858"/>
<ellipse rx="22.0321" ry="32.5763" transform="matrix(0.937955 -0.346757 0.402315 0.915501 461.251 122.37)" fill="white"/>
<ellipse rx="12.3729" ry="18.2944" transform="matrix(0.937955 -0.346757 0.402315 0.915501 451.992 124.218)" fill="black"/>
<ellipse rx="15.7169" ry="29.9968" transform="matrix(0.840349 0.542046 -0.595314 0.803493 556.221 121.069)" fill="white"/>
<ellipse rx="8.85224" ry="13.1989" transform="matrix(0.840349 0.542046 -0.595314 0.803493 546.402 134.335)" fill="black"/>
<rect x="572.434" y="315.823" width="26.6936" height="5.54001" rx="1" transform="rotate(4.64434 572.434 315.823)" fill="#70281C"/>
<rect x="625.414" y="320.127" width="27.5257" height="5.54001" rx="1" transform="rotate(4.64434 625.414 320.127)" fill="#70281C"/>
<ellipse cx="522.94" cy="325.483" rx="4.09346" ry="5.44589" transform="rotate(4.64434 522.94 325.483)" fill="white"/>
<ellipse cx="520.936" cy="325.366" rx="2.71784" ry="3.12736" transform="rotate(4.64434 520.936 325.366)" fill="black"/>
<ellipse cx="579.639" cy="330.089" rx="4.09346" ry="5.44589" transform="rotate(4.64434 579.639 330.089)" fill="white"/>
<ellipse cx="633.389" cy="334.455" rx="4.09346" ry="5.44589" transform="rotate(4.64434 633.389 334.455)" fill="white"/>
<path d="M511.617 343.971C456.958 335.978 427.378 340.1 420.766 339.563L397.178 337.647C445.112 364.396 438.383 358.009 511.617 343.971Z" fill="black"/>
<path d="M511.611 343.97C471.645 351.631 455.494 357.013 441.277 355.975C445.495 347.849 467.104 342.267 511.611 343.97Z" fill="#EE80B7"/>
<ellipse cx="577.346" cy="329.948" rx="2.71784" ry="3.12736" transform="rotate(4.64434 577.346 329.948)" fill="black"/>
<ellipse cx="631.659" cy="334.361" rx="2.71784" ry="3.12736" transform="rotate(4.64434 631.659 334.361)" fill="black"/>
<path d="M657.6 221.609C657.689 220.508 658.654 219.688 659.755 219.778L666.667 220.339C667.768 220.429 668.588 221.394 668.498 222.495L667.464 235.225C667.375 236.326 666.41 237.146 665.309 237.056L658.397 236.495C657.296 236.405 656.476 235.44 656.566 234.339L657.6 221.609Z" fill="#C56858"/>
<rect width="41.4367" height="15.7699" rx="7.88493" transform="matrix(0.940875 0.338753 -0.37637 0.92647 792.375 141.875)" fill="#EE80B7"/>
<path d="M802.465 131.358C802.431 128.458 803.631 124.687 806.528 124.595C809.812 124.49 810.75 128.753 810.484 132.026L809.065 149.49C808.944 150.983 807.802 152.178 806.318 152.367C804.405 152.611 802.693 151.117 802.67 149.186L802.465 131.358Z" fill="#EE80B7"/>
<path d="M808.559 133.085C808.669 131.725 808.288 129.951 806.993 129.523C805.192 128.928 804.288 131.406 804.284 133.301L804.259 146.376L807.403 147.31L808.559 133.085Z" fill="#EB459F"/>
<path d="M821.983 139.695C824.294 136.577 827.853 133.303 831.686 134.285C831.864 134.331 832.032 134.386 832.192 134.452C836.539 136.24 832.673 142.499 829.282 145.748L819.577 155.046C818.374 156.198 816.517 156.463 815.051 155.692C813.149 154.691 812.606 152.351 813.878 150.634L821.983 139.695Z" fill="#EE80B7"/>
<path d="M783.494 161.273C785.255 156.936 790.254 154.706 794.658 156.292L820.617 165.638C825.021 167.223 827.163 172.025 825.401 176.361C823.64 180.698 818.641 182.928 814.237 181.343L788.278 171.997C783.874 170.411 781.732 165.61 783.494 161.273Z" fill="#EE80B7"/>
<path d="M599.391 315.929C595.641 314.036 586.737 310.919 567.133 309.326C545.191 307.544 533.981 302.16 528.017 294.326C527.466 293.602 526.651 293.115 525.744 293.042L522.199 292.754C520.013 288.252 520.723 281.133 522.851 275.714C529.341 259.182 541.744 259.052 567.248 258.396C568.258 258.577 570.065 258.876 571.224 258.97L570.235 271.147C560.887 270.387 555.075 275.009 554.115 286.822L568.446 293.16C569.943 293.433 571.553 293.681 573.287 293.9C587.784 295.729 596.884 307.334 600.65 314.834C600.929 315.39 599.946 316.209 599.391 315.929Z" fill="url(#paint4_linear_844_2205)"/>
<g style="mix-blend-mode:multiply" opacity="0.38">
<ellipse rx="5.45748" ry="4.70546" transform="matrix(-0.996716 -0.0809703 -0.0809703 0.996716 554.636 269.912)" fill="#29AFCC"/>
</g>
<ellipse rx="2.13628" ry="1.84191" transform="matrix(-0.996716 -0.0809703 -0.0809703 0.996716 574.667 306.157)" fill="#29CC7A"/>
<path d="M702.719 300.743C701.862 299.699 701.265 298.764 700.619 297.144L705.1 296.103C704.955 297.809 704.861 299.009 704.279 300.519C704.026 301.177 703.166 301.288 702.719 300.743Z" fill="white"/>
<ellipse rx="2.20031" ry="1.79082" transform="matrix(0.0809704 -0.996716 -0.996716 -0.0809704 553.792 302.45)" fill="#29CC7A"/>
<g style="mix-blend-mode:multiply" opacity="0.38">
<ellipse rx="1.54701" ry="1.58955" transform="matrix(-0.996716 -0.0809703 -0.0809703 0.996716 563.197 267.071)" fill="#29AFCC"/>
</g>
<g style="mix-blend-mode:multiply" opacity="0.38">
<ellipse rx="1.54701" ry="1.58955" transform="matrix(-0.996716 -0.0809703 -0.0809703 0.996716 548.255 275.956)" fill="#29AFCC"/>
</g>
<path d="M721.831 243.969C716.214 247.318 714.489 252.337 714.002 255.253C712.675 263.228 726.496 264.978 726.582 260.565C726.634 257.907 729.175 255.893 728.928 252.035C728.605 246.986 736.644 245.172 735.863 237.034C735.529 233.554 733.619 231.508 733.434 232.868C732.845 240.111 727.812 240.401 721.831 243.969Z" fill="#FFC71A"/>
<ellipse rx="1.07071" ry="1.10015" transform="matrix(-0.996716 -0.0809703 -0.0809703 0.996716 557.91 301.078)" fill="#29CC7A"/>
<path d="M544.766 279.43C545.815 282.038 551.15 288.641 568.446 293.161" stroke="black" stroke-width="2" stroke-linecap="round"/>
<path d="M553.274 263.108L568.082 262.567C569.088 262.53 569.647 261.387 569.058 260.571L561.222 249.704C560.695 248.973 559.594 249.015 559.125 249.784L552.153 261.192C551.629 262.049 552.27 263.144 553.274 263.108Z" fill="#EA479D"/>
<path d="M559.924 296.32L571.587 299.506C572.572 299.776 573.451 298.823 573.104 297.863L568.894 286.212C568.568 285.311 567.396 285.089 566.763 285.808L559.31 294.272C558.694 294.971 559.025 296.074 559.924 296.32Z" fill="#EA479D"/>
<path d="M577.069 300.725L584.398 303.222C585.364 303.552 586.301 302.655 586.014 301.675L583.782 294.062C583.513 293.143 582.357 292.849 581.681 293.527L576.583 298.643C575.925 299.303 576.187 300.424 577.069 300.725Z" fill="#EA479D"/>
<path d="M588.475 304.925L592.431 307.458C593.291 308.009 594.414 307.362 594.369 306.342L594.158 301.534C594.116 300.577 593.063 300.015 592.245 300.512L588.5 302.787C587.704 303.271 587.69 304.423 588.475 304.925Z" fill="#EA479D"/>
<path d="M535.94 268.933L548.458 264.246C549.239 263.954 549.526 262.995 549.032 262.322L542.504 253.409C541.931 252.627 540.725 252.758 540.334 253.646L534.345 267.245C533.895 268.265 534.895 269.324 535.94 268.933Z" fill="#EA479D"/>
<path d="M554.251 294.809L542.582 291.047C541.797 290.794 541.463 289.867 541.906 289.171L549.026 277.978C549.604 277.07 550.981 277.258 551.294 278.288L555.843 293.243C556.139 294.216 555.219 295.121 554.251 294.809Z" fill="#EA479D"/>
<path d="M529.647 279.752L533.267 273.904C533.426 273.647 533.487 273.341 533.44 273.043L531.884 263.281C531.656 261.846 529.582 261.874 529.391 263.314L527.326 278.924C527.148 280.27 528.932 280.907 529.647 279.752Z" fill="#EA479D"/>
<path d="M537.433 289.557L530.534 285.103C530.015 284.768 529.816 284.107 530.062 283.542L535.107 271.955C535.621 270.774 537.366 271.034 537.514 272.313L539.368 288.354C539.49 289.412 538.328 290.135 537.433 289.557Z" fill="#EA479D"/>
<path d="M702.284 277.614C705.175 278.634 708.683 280.392 709.552 269.688C711.862 241.25 751.442 249.503 751.889 269.815C752.192 283.561 750.848 282.347 724.162 299.501C706.192 311.053 693.022 289.397 692.606 284.936C692.008 278.534 696.859 275.702 702.284 277.614Z" fill="#57F287"/>
<path d="M716.685 300.447C715.862 299.375 715.296 298.422 714.702 296.781L719.214 295.886C719.015 297.585 718.882 298.782 718.252 300.273C717.977 300.922 717.114 301.005 716.685 300.447Z" fill="white"/>
<path d="M758.747 263.518C758.282 260.251 745.89 265.929 740.734 266.752L738.943 278.581C745.82 284.091 755.013 290.653 756.715 288.525C757.811 287.155 755.178 284.29 755.309 282.675C755.511 280.181 757.98 278.901 758.171 276.552C758.362 274.202 755.614 272.552 755.821 270.005C755.984 267.991 759.081 265.868 758.747 263.518Z" fill="#3FDE80"/>
<path d="M744.948 274.77L753.013 275.97" stroke="#2BC476" stroke-width="2" stroke-linecap="round"/>
<path d="M744.809 269.5L752.81 267.256" stroke="#2BC476" stroke-width="2" stroke-linecap="round"/>
<path d="M744.258 278.591L751.351 282.922" stroke="#2BC476" stroke-width="2" stroke-linecap="round"/>
<path d="M702.799 274.364C702.758 275.603 709.102 274.013 712.181 273.962L715.23 265.471C712.256 260.689 708.143 254.886 706.808 256.265C706.414 256.672 707.414 259.963 707.179 260.853C706.698 262.679 704.634 262.784 704.223 265.379C704.028 266.609 705.493 268.116 705.193 270.009C705.025 271.074 702.858 272.613 702.799 274.364Z" fill="#3FDE80"/>
<ellipse cx="729.527" cy="272.363" rx="4.92969" ry="7.2999" transform="rotate(32.4569 729.527 272.363)" fill="white"/>
<ellipse cx="727.492" cy="272.83" rx="2.60264" ry="4.02208" transform="rotate(29.1705 727.492 272.83)" fill="black"/>
<path d="M716.197 270.445C714.844 274.242 711.668 276.58 709.103 275.666C708.9 275.594 708.708 275.504 708.525 275.397C710.205 269.128 708.899 268.153 711.386 261.994C712.267 261.663 713.168 261.616 714.004 261.913C716.568 262.827 717.55 266.647 716.197 270.445Z" fill="white"/>
<path d="M713.173 270.355C712.46 272.355 710.787 273.586 709.437 273.105C709.33 273.067 709.229 273.02 709.132 272.963C708.939 271.994 709.245 267.893 710.141 265.71C710.605 265.536 711.577 265.705 712.018 265.862C713.368 266.344 713.885 268.355 713.173 270.355Z" fill="black"/>
<path d="M745.872 245.139C741.437 245.85 736.745 251.513 735.575 254.228C731.775 263.051 745.738 265.334 746.523 262.39C747.209 259.821 749.624 252.542 753.194 251.06C758.858 248.708 760.818 245.91 761.154 241.755C761.436 238.271 760.294 235.853 759.79 237.13C758.459 243.971 754.623 243.736 745.872 245.139Z" fill="#FFC71A"/>
<path d="M713.264 285.489C714.1 287.409 712.483 288.449 712.483 288.449C712.824 285.448 707.758 289.309 707.096 287.789C706.694 286.863 707.765 285.548 709.393 284.839C710.639 284.297 712.861 284.564 713.264 285.489Z" fill="black"/>
<path d="M693.181 282.317C692.047 284.077 692.669 284.845 692.669 284.845C693.458 282.242 695.207 285.176 696.105 283.782C696.652 282.934 696.448 281.876 695.709 281.4C695.144 281.036 693.728 281.469 693.181 282.317Z" fill="black"/>
<g style="mix-blend-mode:multiply" opacity="0.38">
<ellipse rx="3.45139" ry="2.41919" transform="matrix(-0.996716 -0.0809703 -0.0809703 0.996716 729.384 283.042)" fill="#29AFCC"/>
</g>
<g style="mix-blend-mode:multiply" opacity="0.38">
<ellipse rx="1.60839" ry="1.65939" transform="matrix(-0.808836 0.588034 0.588034 0.808836 735.921 282.404)" fill="#29AFCC"/>
</g>
<path d="M917.42 191.126L928.433 153.419C910.156 143.057 889.391 154.713 870.593 143.943L861.09 179.567C873.499 187.999 895.401 190.174 895.644 187.188C895.644 187.188 908.962 187.669 917.42 191.126Z" fill="#5865F2"/>
<path d="M353.474 196.604L373.202 203.149L381.684 202.968L392.194 195.781L337.988 175.045C337.155 174.726 336.265 175.353 336.284 176.244L336.318 177.854C336.338 178.771 336.856 179.605 337.67 180.028L345.593 184.15L343.952 189.443C343.472 190.992 344.037 192.673 345.354 193.618L345.801 193.938C344.967 195.571 345.482 197.569 347.002 198.594L348.093 199.33L353.474 196.604Z" fill="#FF8C19"/>
<path fill-rule="evenodd" clip-rule="evenodd" d="M381.368 191.624C380.418 193.13 379.667 194.398 379.219 196.226L378.817 197.862L373.874 196.65C370.875 195.914 367.851 197.47 366.644 200.199L366.479 200.922L364.447 200.244C366.146 196.291 369.895 193.615 374.351 194.708L377.354 195.444C377.859 193.522 378.297 192.425 379.308 190.824L381.368 191.624Z" fill="#FF8C19"/>
<path d="M346.592 193.385L353.139 188.867L352.498 184.984" stroke="black" stroke-width="2" stroke-linecap="round"/>
<path d="M378.632 197.698L374.66 196.723C370.759 195.766 366.82 198.153 365.863 202.055C364.906 205.956 367.293 209.894 371.195 210.851L414.902 221.573L418.531 206.78C420.893 197.15 415.001 187.428 405.372 185.066L400.509 183.873C390.879 181.511 381.157 187.402 378.795 197.032L378.632 197.698Z" fill="#FFC619"/>
<path d="M381.079 210.052L401.241 213.91C402.19 214.091 403.166 213.779 403.833 213.081C405.317 211.527 404.608 208.951 402.537 208.376L381.123 202.433C383.159 205.59 383.632 207.302 381.079 210.052Z" fill="black"/>
<path d="M378.054 201.582L381.123 202.433M381.123 202.433L402.537 208.376C404.608 208.951 405.317 211.527 403.833 213.081V213.081C403.166 213.779 402.19 214.091 401.241 213.91L381.079 210.052C383.632 207.302 383.159 205.59 381.123 202.433Z" stroke="black" stroke-width="2" stroke-linecap="round"/>
<path d="M401.015 214.899L393.077 213.362C394.85 208.648 402.12 210.475 405.533 211.977C405.055 214.006 403.061 215.295 401.015 214.899Z" fill="#EE80B7"/>
<path d="M434.851 209.432L417.971 208.061L414.679 221.306L451.851 232.905L463.532 227.536C465.815 226.486 466.771 223.75 465.637 221.507C464.598 219.453 462.161 218.536 460.025 219.395L446.854 224.695L443.352 215.753C441.959 212.195 438.659 209.742 434.851 209.432Z" fill="#FFC619"/>
<path d="M466.743 230.774L457.288 230.006L451.949 232.821L456.144 237.491L466.377 237.735C468.225 237.78 469.786 236.374 469.936 234.532C470.092 232.613 468.662 230.93 466.743 230.774Z" fill="#FFC619"/>
<path d="M527.432 292.748C527.59 291.249 528.601 289.859 530.039 288.597" stroke="#29C175" stroke-width="2" stroke-linecap="round"/>
<ellipse cx="392.821" cy="194.218" rx="4.99453" ry="7.2307" transform="rotate(25.4721 392.821 194.218)" fill="white"/>
<ellipse cx="391.003" cy="193.791" rx="2.38214" ry="3.44868" transform="rotate(25.4721 391.003 193.791)" fill="black"/>
<path d="M407.285 159.919C392.805 158.865 391.383 176.961 395.116 185.453C417.317 185.275 405.989 207.098 418.235 208.093C428.34 208.914 430.656 203.839 430.882 201.059L424.781 200.563C424.781 200.563 424.288 198.127 427.979 192.899C432.635 186.304 425.023 185.395 420.635 185.765C423.996 177.718 426.032 161.283 407.285 159.919Z" fill="#5865F2"/>
<path d="M415.795 191.302C416.015 190.1 417.288 187.515 420.626 186.79" stroke="black" stroke-width="2" stroke-linecap="round"/>
<path d="M463.961 226.199L452.518 232.204" stroke="black" stroke-width="2" stroke-linecap="round"/>
<path d="M447.794 227.108C448 227.621 448.582 227.87 449.095 227.664C449.607 227.458 449.856 226.876 449.65 226.364L447.794 227.108ZM449.65 226.364L448.685 223.957L446.829 224.701L447.794 227.108L449.65 226.364Z" fill="black"/>
<path d="M419.351 229.861L412.16 229.277C410.321 229.128 408.822 227.74 408.533 225.917L408.291 224.392L407.78 219.861L404.175 218.903C404.31 217.235 405.897 216.078 407.526 216.458L416.054 218.449L415.148 217.702C413.295 216.176 413.221 213.348 414.959 211.693C416.362 210.357 418.54 210.2 420.102 211.345L430.399 218.895L423.834 224.082L423.662 226.198C423.483 228.4 421.553 230.04 419.351 229.861Z" fill="#FF8C19"/>
<path d="M471.409 30.8248C470.953 33.4589 472.857 35.9163 475.521 36.1328L476.043 36.1752C477.779 36.3162 479.401 35.2599 479.993 33.6226C480.696 31.6807 482.376 30.2307 484.404 29.8384L485.524 29.6217C488.419 29.0617 489.214 25.2946 486.792 23.6126C486.07 23.1109 485.178 22.9151 484.312 23.068L477.63 24.247C474.485 24.802 472.025 27.2694 471.48 30.4163L471.409 30.8248Z" fill="url(#paint5_linear_844_2205)"/>
<path d="M422.806 218.504L416.663 217.673" stroke="black" stroke-width="2" stroke-linecap="round"/>
<path d="M481.175 22.5201L485.752 29.4581L516.488 31.9549L516.347 30.1226C515.982 25.3719 513.933 20.9076 510.568 17.5336L500.138 7.07275C496.316 3.23976 490.436 2.35825 485.658 4.90189C479.264 8.30599 477.185 16.4736 481.175 22.5201Z" fill="#5865F2"/>
<path d="M510.334 48.6056C509.469 50.2885 507.667 51.2759 505.783 51.0994C502.521 50.7936 500.599 47.2879 502.097 44.373L504.559 39.5819C505.724 37.3144 506.445 34.845 506.683 32.3067L507.282 25.9132C507.562 22.9266 508.921 20.1444 511.104 18.0871C515.119 20.616 517.371 25.188 516.928 29.9125L516.617 33.2375C516.379 35.7758 515.658 38.2452 514.493 40.5128L510.334 48.6056Z" fill="#5865F2"/>
<path d="M507.289 24.9113C507.334 24.3608 506.924 23.8783 506.374 23.8336C505.823 23.7889 505.341 24.1989 505.296 24.7494L507.289 24.9113ZM506.779 31.1999L507.289 24.9113L505.296 24.7494L504.785 31.038L506.779 31.1999Z" fill="black"/>
<path d="M481.881 12.7961C481.359 12.6137 480.789 12.8885 480.607 13.4098C480.424 13.9311 480.699 14.5015 481.22 14.6839L481.881 12.7961ZM485.909 14.2052L481.881 12.7961L481.22 14.6839L485.248 16.093L485.909 14.2052Z" fill="black"/>
<path d="M485.548 9.15374C485.25 8.68894 484.631 8.55396 484.167 8.85225C483.702 9.15054 483.567 9.76915 483.865 10.234L485.548 9.15374ZM487.9 12.818L485.548 9.15374L483.865 10.234L486.217 13.8982L487.9 12.818Z" fill="black"/>
<path d="M492.09 9.54837C492.249 9.01959 491.95 8.46171 491.421 8.30232C490.892 8.14292 490.335 8.44237 490.175 8.97116L492.09 9.54837ZM490.741 14.0235L492.09 9.54837L490.175 8.97116L488.826 13.4463L490.741 14.0235Z" fill="black"/>
<circle cx="489.009" cy="17.1947" r="5.24382" transform="rotate(4.64434 489.009 17.1947)" fill="white"/>
<circle cx="489.008" cy="17.1948" r="3.01659" transform="rotate(4.64434 489.008 17.1948)" fill="black"/>
<path d="M775.507 284.129C773.121 283.741 770.268 286.839 769.215 288.405C770.072 289.732 771.567 291.089 774.987 291.08L776.162 296.002C776.464 297.265 777.543 298.191 778.837 298.296L780.037 298.393L781.038 296.377L781.088 296.546C781.437 297.738 782.485 298.592 783.724 298.693L784.861 298.785L784.791 296.483L784.721 294.182L786.713 296.734C787.445 297.671 788.66 298.087 789.813 297.796L789.99 297.752L790.267 294.342C790.378 292.975 790.017 291.611 789.245 290.478L787.159 287.415C786.097 285.855 784.364 284.891 782.481 284.772C780.039 284.618 777.119 284.39 775.507 284.129Z" fill="#57F287"/>
<path fill-rule="evenodd" clip-rule="evenodd" d="M785.556 288.38C786.109 288.365 786.568 288.804 786.578 289.358L786.708 296.74L784.718 294.195L784.588 289.402C784.573 288.853 785.006 288.395 785.556 288.38Z" fill="#2BC476"/>
<path fill-rule="evenodd" clip-rule="evenodd" d="M781.864 290.576C782.417 290.561 782.876 291 782.886 291.553L783.01 298.544C781.865 298.253 781.398 297.5 781.026 296.391L780.896 291.598C780.881 291.049 781.315 290.591 781.864 290.576Z" fill="#2BC476"/>
<path fill-rule="evenodd" clip-rule="evenodd" d="M773.706 288.532C774.206 288.518 774.64 288.877 774.72 289.371L774.999 291.089C773.922 291.056 772.465 290.984 771.467 290.41L772.298 289.031C772.474 288.739 772.787 288.557 773.128 288.548L773.706 288.532Z" fill="#2BC476"/>
<path d="M491.724 23.3399L495.272 20.4208C496.762 19.1947 498.879 19.2173 500.336 20.3857C500.662 20.6476 500.708 21.1123 500.504 21.4777C498.077 25.8205 496.023 27.7294 494.119 28.2997C492.952 28.6492 491.574 28.2799 490.986 27.2132C490.306 25.98 490.512 24.3369 491.724 23.3399Z" fill="black"/>
<path d="M392.315 336.609C369.215 334.368 350.313 372.249 330.734 364.953C296.036 352.022 254.516 385.488 218.636 385.488L91.1504 405.023H662.952L604.84 385.488C583.157 383.96 590.566 376.465 568.782 375.219C467.268 369.413 416.374 367.817 392.315 336.609Z" fill="#1586F8"/>
<path d="M753.016 362.438C771.522 362.438 804.267 375.641 828.93 370.214C872.638 360.597 869.468 385.488 914.664 385.488L618.144 407.698L483.648 385.488C584.759 385.488 612.202 351.192 646.853 356.254C647.992 356.42 648.703 357.579 648.49 358.711C642.766 389.08 689.656 380.571 704.723 378.136C723.491 375.104 737.879 369.268 753.016 362.438Z" fill="#1586F8"/>
<path d="M1080.85 384.621C961.776 374.301 963.227 275.194 877.239 265.899C876.006 265.765 874.927 266.852 875.007 268.09C882.263 379.771 736.795 385.488 733.047 385.488L589.385 407.029H1129.09L1117.96 398.295C1107.39 389.998 1094.23 385.781 1080.85 384.621Z" fill="#1586F8"/>
<path d="M943.629 385.488C943.629 385.488 1132.92 418.728 1130.76 400.409C1096.09 395.456 1059.68 328.01 994.23 325.963C992.796 325.918 991.824 327.429 992.326 328.772C1010.56 377.585 945.34 385.488 943.629 385.488Z" fill="#1586F8"/>
<path d="M346.222 385.488C244.348 385.488 248.758 341.013 183.397 336.728C182.138 336.646 181.099 337.793 181.163 339.053C183.597 386.949 42.2496 392.641 4.20898 400.341L238.949 407.698L346.222 385.488Z" fill="#1586F8"/>
<path d="M794.013 173.95C800.364 176.089 804.914 175.529 809.496 174.557C816.198 173.137 821.355 178.789 820.153 185.532L819.837 187.306L793.614 185.175L787.569 184.153L794.013 173.95Z" fill="#274DAD"/>
<path d="M356.891 304.62C350.503 307.782 360.151 315.451 364.505 321.162C367.054 309.584 362.426 301.88 356.891 304.62Z" fill="#1586F8"/>
<path d="M161.683 332.402C158.571 338.814 170.894 338.965 177.835 340.811C172.756 330.098 164.379 326.845 161.683 332.402Z" fill="#1586F8"/>
<path d="M976.347 291.327C973.235 297.739 985.559 297.89 992.499 299.736C987.421 289.023 979.043 285.77 976.347 291.327Z" fill="#1586F8"/>
<path d="M666.749 363.188C670.407 369.484 659.751 369.009 654.293 370.908C657.724 362.006 664.251 358.892 666.749 363.188Z" fill="#1586F8"/>
<path d="M360.989 291.749C359.823 293.745 362.124 298.336 366.396 300.528C369.423 293.5 363.851 286.851 360.989 291.749Z" fill="#1586F8"/>
<path d="M157.037 319.718C157.339 322.01 161.97 324.229 166.689 323.344C164.776 315.935 156.298 314.094 157.037 319.718Z" fill="#1586F8"/>
<path d="M971.702 278.643C972.003 280.935 976.634 283.154 981.353 282.269C979.44 274.86 970.963 273.019 971.702 278.643Z" fill="#1586F8"/>
<path d="M669.711 352.73C669.607 354.587 666.024 356.647 662.184 356.22C663.274 350.16 669.966 348.173 669.711 352.73Z" fill="#1586F8"/>
<path d="M321.916 345.691C320.657 347.061 321.68 351.065 324.664 353.519C328.247 348.511 325.004 342.33 321.916 345.691Z" fill="#1586F8"/>
<rect x="824.562" y="197.337" width="3.76419" height="35.7119" transform="rotate(4.64434 824.562 197.337)" fill="#C56858"/>
<ellipse cx="799.852" cy="155.772" rx="1.54297" ry="2.76581" transform="rotate(-8.83986 799.852 155.772)" fill="black"/>
<ellipse rx="1.54297" ry="2.76581" transform="matrix(-0.784946 -0.619564 -0.619564 0.784946 811.497 159.055)" fill="black"/>
<path d="M766.478 182.971C766.719 180.004 769.319 177.794 772.286 178.036L778.877 178.571L783.95 178.983L781.66 184.204L766.478 182.971Z" fill="#EE80B7"/>
<path d="M780.329 178.451L798.549 177.886L810.343 175.78C814.217 175.088 817.696 178.25 817.378 182.172L817.222 184.083C817.088 185.735 815.641 186.965 813.989 186.83L797.928 185.526L779.874 184.059L780.329 178.451Z" fill="#F6E4BE"/>
<path fill-rule="evenodd" clip-rule="evenodd" d="M698.507 295.079C698.892 295.178 699.277 295.279 699.663 295.381C702.981 296.256 706.378 297.152 710.682 296.6C715.319 296.006 721.107 293.705 728.884 287.579C729.318 287.237 729.947 287.304 730.294 287.734C730.641 288.164 730.574 288.794 730.14 289.136C722.172 295.416 716.046 297.929 710.936 298.584C707.258 299.055 704.157 298.551 701.4 297.891C699.668 296.439 698.507 295.079 698.507 295.079Z" fill="black"/>
<path d="M904.562 160.689C902.939 159.601 901.152 158.687 899.233 157.996C899.216 157.99 899.198 157.988 899.18 157.992C899.162 157.996 899.147 158.005 899.135 158.018C898.816 158.376 898.447 158.852 898.18 159.232C896.137 158.539 894.004 158.137 891.849 158.038C891.725 157.538 891.573 157.044 891.391 156.558C891.385 156.542 891.374 156.527 891.359 156.517C891.344 156.506 891.326 156.5 891.308 156.5C889.271 156.444 887.273 156.645 885.365 157.068C885.348 157.071 885.333 157.079 885.322 157.091C880.788 161.419 878.883 166.115 878.458 171.026C878.457 171.038 878.459 171.05 878.463 171.062C878.467 171.073 878.474 171.084 878.482 171.093C880.305 172.935 882.434 174.478 884.782 175.657C884.798 175.665 884.816 175.669 884.835 175.667C884.853 175.665 884.87 175.658 884.884 175.647C885.545 175.069 886.155 174.442 886.703 173.766C886.736 173.727 886.722 173.67 886.677 173.643C885.982 173.237 885.321 172.779 884.699 172.276C884.688 172.267 884.679 172.255 884.674 172.242C884.668 172.229 884.666 172.215 884.668 172.201C884.669 172.188 884.675 172.175 884.683 172.163C884.691 172.152 884.702 172.143 884.715 172.137C884.88 172.063 885.045 171.984 885.204 171.904C885.218 171.897 885.234 171.894 885.25 171.895C885.267 171.896 885.282 171.901 885.296 171.91C889.462 174.694 894.369 175.619 899.21 174.534C899.226 174.53 899.243 174.531 899.259 174.535C899.275 174.54 899.289 174.549 899.3 174.561C899.418 174.694 899.542 174.828 899.669 174.957C899.679 174.967 899.687 174.979 899.691 174.993C899.694 175.006 899.695 175.02 899.692 175.034C899.688 175.047 899.682 175.06 899.672 175.07C899.662 175.08 899.65 175.088 899.637 175.092C898.876 175.339 898.098 175.522 897.295 175.644C897.283 175.646 897.271 175.65 897.261 175.657C897.25 175.663 897.241 175.672 897.235 175.682C897.228 175.692 897.224 175.703 897.223 175.715C897.221 175.727 897.222 175.739 897.226 175.75C897.5 176.58 897.84 177.385 898.234 178.163C898.243 178.179 898.256 178.193 898.272 178.201C898.289 178.21 898.307 178.214 898.326 178.212C900.945 177.972 903.494 177.31 905.865 176.257C905.877 176.252 905.887 176.245 905.895 176.236C905.903 176.227 905.909 176.216 905.913 176.205C907.541 170.74 906.91 165.607 904.592 160.726C904.587 160.711 904.576 160.698 904.562 160.689ZM888.15 169.814C886.786 169.557 885.882 168.175 886.152 166.741C886.423 165.306 887.746 164.345 889.132 164.607C890.528 164.87 891.42 166.258 891.129 167.68C890.859 169.115 889.535 170.075 888.15 169.814ZM897.35 171.549C895.986 171.292 895.082 169.91 895.353 168.476C895.623 167.041 896.946 166.08 898.332 166.342C899.728 166.605 900.621 167.993 900.33 169.415C900.059 170.85 898.747 171.813 897.35 171.549Z" fill="white"/>
<path d="M897.753 179.595L895.643 187.188C897.028 187.236 897.821 187.31 899.142 187.418L897.753 179.595Z" fill="#3945D1"/>
<path d="M823.967 141.015C825.088 139.613 826.122 138.397 827.738 137.613C831.829 135.628 833.271 138.912 830.027 142.088L820.018 151.993L816.3 150.482L823.967 141.015Z" fill="#EB459F"/>
<path d="M798.656 162.068C799.708 163.711 802.949 166.822 807.501 166.124" stroke="#B84373" stroke-width="2" stroke-linecap="round"/>
<path d="M788.498 194.407L819.212 196.902C818.948 200.154 819.108 202.838 817.451 204.834L790.453 201.358C788.153 198.317 787.803 197.965 788.498 194.407Z" fill="#274DAD"/>
<path d="M790.445 201.278L817.407 204.808L812.287 228.863L802.317 228.053L800.777 215.023L798.673 227.757L788.536 226.934L790.445 201.278Z" fill="#232231"/>
<path d="M800.781 207.927L801.957 216.217" stroke="black" stroke-width="2" stroke-linecap="round"/>
<path d="M763.089 153.424C763.321 150.567 765.902 148.489 768.743 148.874L796.859 152.678C798.658 152.921 799.952 154.529 799.805 156.339C799.659 158.131 798.149 159.503 796.35 159.477L767.979 159.053C765.088 159.01 762.836 156.531 763.07 153.649L763.089 153.424Z" fill="#FFC619"/>
<path d="M762.307 153.571C762.595 150.017 765.816 147.438 769.347 147.933L781.978 149.704C784.761 150.094 786.757 152.587 786.53 155.388C786.306 158.14 784.008 160.261 781.246 160.263L768.491 160.273C764.867 160.276 762.013 157.183 762.307 153.571Z" fill="#FFC619"/>
<circle cx="768.228" cy="154.131" r="4.45506" transform="rotate(4.64434 768.228 154.131)" fill="white"/>
<circle cx="768.232" cy="154.132" r="2.68047" transform="rotate(4.64434 768.232 154.132)" fill="black"/>
<path fill-rule="evenodd" clip-rule="evenodd" d="M786.947 153.003C787.485 152.808 788.032 153.153 788.168 153.774C788.609 155.787 788.179 157.722 787.078 159.343L784.302 159.297C785.832 158.191 786.594 156.2 786.218 154.481C786.082 153.86 786.408 153.198 786.947 153.003Z" fill="#CF9E09"/>
<path d="M648.84 183.062L657.764 183.786L657.534 186.615L648.766 183.973L648.84 183.062Z" fill="black"/>
<path d="M682.742 185.816L691.666 186.541L691.437 189.37L682.668 186.727L682.742 185.816Z" fill="black"/>
<path d="M723.164 189.1L732.088 189.825L731.858 192.653L723.09 190.011L723.164 189.1Z" fill="black"/>
<path d="M766.824 192.646L775.748 193.371L775.519 196.2L766.75 193.558L766.824 192.646Z" fill="black"/>
<path d="M824.562 197.337L857.881 200.043L857.651 202.872L824.488 198.248L824.562 197.337Z" fill="black"/>
<path fill-rule="evenodd" clip-rule="evenodd" d="M798.861 177.824L799.706 181.321C799.836 181.858 799.505 182.398 798.968 182.527C798.431 182.657 797.891 182.326 797.762 181.789L796.821 177.937L797.831 177.901L798.861 177.824Z" fill="#CBAC8B"/>
<path d="M365.672 373.261C368.568 365.873 376.796 349.533 386.531 343.275" stroke="#4EA6F7" stroke-width="2" stroke-linecap="round"/>
<path fill-rule="evenodd" clip-rule="evenodd" d="M310.384 371.495C310.157 370.992 309.564 370.768 309.061 370.996C299.209 375.445 284.227 376.599 272.343 371.355L269.694 372.32C282.439 378.77 299.108 377.685 309.884 372.818C310.388 372.591 310.611 371.999 310.384 371.495Z" fill="#429CF3"/>
<path d="M921.503 360.467C932.518 322.053 915.778 291.134 878.885 268.235" stroke="#4EA6F7" stroke-width="2" stroke-linecap="round"/>
<path d="M880.558 325.508C889.593 314.252 888.336 301.616 879.248 288.836" stroke="#4EA6F7" stroke-width="2" stroke-linecap="round"/>
<path d="M972.046 374.765C986.191 371.893 993.308 361.377 994.499 345.74" stroke="#449DF3" stroke-width="2" stroke-linecap="round"/>
<path d="M377.887 362.701C379.116 359.565 382.609 352.629 386.741 349.972" stroke="#4EA6F7" stroke-width="2" stroke-linecap="round"/>
<path d="M777.595 379.905C786.833 388.772 724.178 394.373 724.178 378.505" stroke="#4EA6F7" stroke-width="2" stroke-linecap="round"/>
<path d="M791.062 380.627C804.892 394.064 711.09 402.551 711.09 378.505" stroke="#4EA6F7" stroke-width="2" stroke-linecap="round"/>
<path d="M371.313 73.9638C371.502 73.4533 372.224 73.4533 372.413 73.9638L373.824 77.7786C373.884 77.9391 374.01 78.0657 374.171 78.1251L377.986 79.5367C378.496 79.7256 378.496 80.4477 377.986 80.6366L374.171 82.0482C374.01 82.1076 373.884 82.2342 373.824 82.3947L372.413 86.2094C372.224 86.72 371.502 86.72 371.313 86.2094L369.901 82.3947C369.842 82.2342 369.715 82.1076 369.555 82.0482L365.74 80.6366C365.229 80.4477 365.229 79.7256 365.74 79.5367L369.555 78.1251C369.715 78.0657 369.842 77.9391 369.901 77.7786L371.313 73.9638Z" fill="#1586F8"/>
<path d="M327.004 243.369C327.193 242.859 327.915 242.859 328.104 243.369L329.516 247.184C329.575 247.345 329.702 247.471 329.862 247.531L333.677 248.942C334.188 249.131 334.188 249.853 333.677 250.042L329.862 251.454C329.702 251.513 329.575 251.64 329.516 251.8L328.104 255.615C327.915 256.126 327.193 256.126 327.004 255.615L325.593 251.8C325.533 251.64 325.407 251.513 325.246 251.454L321.431 250.042C320.921 249.853 320.921 249.131 321.431 248.942L325.246 247.531C325.407 247.471 325.533 247.345 325.593 247.184L327.004 243.369Z" fill="#1586F8"/>
<path d="M324.074 324.245L327.927 320.392" stroke="white" stroke-width="2" stroke-linecap="round"/>
<path d="M331.988 316.332L335.84 312.479" stroke="white" stroke-width="2" stroke-linecap="round"/>
<path d="M324.074 312.479L327.927 316.331" stroke="white" stroke-width="2" stroke-linecap="round"/>
<path d="M331.988 320.392L335.84 324.244" stroke="white" stroke-width="2" stroke-linecap="round"/>
<path d="M678.414 71.9369H682.398" stroke="white" stroke-width="2" stroke-linecap="round"/>
<path d="M686.597 71.9376H690.58" stroke="white" stroke-width="2" stroke-linecap="round"/>
<path d="M684.497 65.854L684.497 69.8376" stroke="white" stroke-width="2" stroke-linecap="round"/>
<path d="M684.498 74.0366L684.498 78.0202" stroke="white" stroke-width="2" stroke-linecap="round"/>
<path d="M841.109 103.179H845.093" stroke="#E6F8FF" stroke-width="2" stroke-linecap="round"/>
<path d="M849.292 103.179H853.276" stroke="#E6F8FF" stroke-width="2" stroke-linecap="round"/>
<path d="M847.192 97.0957L847.192 101.079" stroke="#E6F8FF" stroke-width="2" stroke-linecap="round"/>
<path d="M847.193 105.278L847.193 109.262" stroke="#E6F8FF" stroke-width="2" stroke-linecap="round"/>
<ellipse cx="252.892" cy="309.736" rx="1.92757" ry="4.66919" fill="#2BC476"/>
<ellipse cx="267.768" cy="341.4" rx="1.92757" ry="4.66919" transform="rotate(-51.6842 267.768 341.4)" fill="#2BC476"/>
<ellipse cx="250.963" cy="328.515" rx="1.92757" ry="2.74248" transform="rotate(-27.7317 250.963 328.515)" fill="#2BC476"/>
<path d="M297.304 345.96C283.308 330.928 296.814 303.313 314.409 295.852C339.073 285.393 356.251 275.712 348.796 251.879" stroke="#2BC476" stroke-width="2" stroke-linecap="round"/>
<path d="M525.557 30.8478C525.006 30.8118 524.53 31.2294 524.494 31.7805C524.458 32.3316 524.876 32.8076 525.427 32.8436L525.557 30.8478ZM525.427 32.8436L535.687 33.5142L535.818 31.5185L525.557 30.8478L525.427 32.8436Z" fill="#47170F"/>
<path d="M800.63 332.351C759.777 321.445 733.181 364.723 731.034 375.409C733.565 386.795 752.963 385.952 763.927 381.313C778.687 360.65 786.241 341.455 822.888 358.247C842.694 367.323 858.758 355.984 864.139 341.925C864.648 340.594 863.834 339.164 862.458 338.794C861.363 338.5 860.209 338.983 859.561 339.914C846.564 358.595 825.825 339.077 800.63 332.351Z" fill="#57F287"/>
<path fill-rule="evenodd" clip-rule="evenodd" d="M859.203 340.414C857.015 346.272 852.111 353.907 842.801 357.064C833.956 360.062 827.416 358.082 820.101 355.32C819.471 355.082 818.835 354.839 818.191 354.592C811.355 351.971 803.682 349.03 793.09 349.361C783.333 349.666 773.759 355.474 765.824 362.552C757.865 369.651 751.402 378.163 747.858 384.159C747.789 384.275 747.747 384.399 747.729 384.525C748.486 384.522 749.249 384.498 750.014 384.452C753.546 378.665 759.68 370.712 767.155 364.045C774.971 357.074 784.102 351.643 793.152 351.36C796.902 351.243 800.264 351.55 803.358 352.115C808.814 352.793 815.212 354.731 822.886 358.247C823.511 358.534 824.133 358.8 824.75 359.046C830.381 360.736 836.213 361.409 843.443 358.958C854.871 355.083 860.078 345.027 861.866 338.709C860.964 338.687 860.091 339.15 859.559 339.914C859.441 340.084 859.322 340.251 859.203 340.414Z" fill="#2BC476"/>
</g>
<defs>
<linearGradient id="paint0_linear_844_2205" x1="590.053" y1="0" x2="590.053" y2="400" gradientUnits="userSpaceOnUse">
<stop stop-color="#66BCFF"/>
<stop offset="1" stop-color="#3F99F2"/>
</linearGradient>
<linearGradient id="paint1_linear_844_2205" x1="590.053" y1="0" x2="590.053" y2="400" gradientUnits="userSpaceOnUse">
<stop stop-color="#66BCFF"/>
<stop offset="1" stop-color="#3F99F2"/>
</linearGradient>
<linearGradient id="paint2_linear_844_2205" x1="638.968" y1="272.648" x2="808.213" y2="317.825" gradientUnits="userSpaceOnUse">
<stop stop-color="#8F473B"/>
<stop offset="1" stop-color="#70281C"/>
</linearGradient>
<linearGradient id="paint3_linear_844_2205" x1="523.279" y1="56.415" x2="553.338" y2="383.68" gradientUnits="userSpaceOnUse">
<stop stop-color="#E7F8FF"/>
<stop offset="1" stop-color="#3F99F2"/>
</linearGradient>
<linearGradient id="paint4_linear_844_2205" x1="550.511" y1="295.342" x2="541.071" y2="250.574" gradientUnits="userSpaceOnUse">
<stop stop-color="#57F287"/>
<stop offset="1" stop-color="#29CC7A"/>
</linearGradient>
<linearGradient id="paint5_linear_844_2205" x1="469.659" y1="32.4449" x2="492.735" y2="26.1197" gradientUnits="userSpaceOnUse">
<stop stop-color="#5865F2"/>
<stop offset="1" stop-color="#1217A4"/>
</linearGradient>
<clipPath id="clip0_844_2205">
<rect width="1180" height="400" fill="white"/>
</clipPath>
</defs>
</svg>
